<?xml version="1.0" standalone="no"?>
<!DOCTYPE svg PUBLIC "-//W3C//DTD SVG 20010904//EN"
 "http://www.w3.org/TR/2001/REC-SVG-20010904/DTD/svg10.dtd">
<svg version="1.0" xmlns="http://www.w3.org/2000/svg"
 width="512.000000pt" height="512.000000pt" viewBox="0 0 512.000000 512.000000"
 preserveAspectRatio="xMidYMid meet">
<metadata>
Created by potrace 1.11, written by Peter Selinger 2001-2013
</metadata>
<g transform="translate(0.000000,512.000000) scale(0.100000,-0.100000)"
fill="#000000" stroke="none">
<path d="M965 4785 c-262 -49 -489 -235 -590 -482 -57 -141 -55 -77 -55 -1743
0 -1361 2 -1539 16 -1608 59 -288 269 -513 565 -604 l74 -23 1535 -3 c1101 -2
1557 0 1614 8 326 47 594 299 660 622 14 68 16 250 16 1608 0 1686 3 1602 -62
1757 -78 189 -251 356 -444 429 -144 55 -97 53 -1739 53 -1213 -1 -1534 -3
-1590 -14z m3240 -38 c152 -46 309 -149 400 -265 60 -75 120 -198 145 -296 17
-68 20 -108 18 -280 -1 -111 -3 -181 -5 -156 l-4 45 -209 -3 c-166 -2 -210 0
-210 10 -1 24 -63 -106 -100 -212 -59 -164 -111 -439 -89 -466 6 -8 3 -19 -9
-34 l-19 -23 -39 34 c-84 75 -126 103 -139 93 -7 -5 -48 -39 -90 -76 -43 -38
-83 -68 -88 -68 -5 0 -49 33 -96 74 l-87 74 -74 -69 c-53 -48 -83 -68 -102
-69 -25 0 -27 3 -33 58 -12 121 -37 241 -71 342 -34 102 -147 345 -179 385
-15 18 -15 18 0 -12 8 -18 15 -35 15 -38 0 -3 -363 -5 -807 -5 l-806 0 20 23
c11 12 28 36 37 52 17 29 17 29 0 5 -10 -14 -37 -44 -61 -67 -40 -40 -50 -62
-13 -28 14 13 17 13 17 1 0 -8 -3 -15 -6 -14 -3 0 -10 -1 -16 -2 -5 -2 -19 -3
-30 -4 -11 -1 -19 -6 -18 -13 2 -8 -4 -10 -14 -6 -9 4 -14 2 -11 -3 4 -5 -4
-10 -15 -11 -12 -1 -53 -5 -92 -8 -58 -6 -80 -3 -130 15 -33 12 -68 22 -78 24
-9 1 -23 9 -30 16 -10 12 -9 12 6 1 31 -24 18 -6 -30 39 -28 28 -39 35 -27 18
10 -15 22 -28 27 -28 4 0 7 -4 7 -9 0 -4 -12 -6 -27 -3 -24 5 -26 3 -20 -24 3
-16 9 -38 12 -49 5 -15 4 -17 -3 -5 -16 25 -44 142 -39 167 2 12 0 20 -4 17
-5 -3 -9 12 -9 33 -1 63 -19 15 -34 -89 -8 -51 -14 -87 -15 -81 -1 14 -27 13
-51 -2 -13 -8 -13 -7 -1 8 7 9 10 17 6 17 -4 0 -2 6 4 13 8 10 7 14 -4 14 -8
0 -12 -4 -9 -9 6 -10 -26 -6 -45 6 -10 6 -12 5 -7 -2 4 -7 1 -12 -9 -12 -10 0
-14 5 -9 13 5 9 4 9 -6 0 -11 -10 -17 -10 -29 0 -12 9 -13 9 -7 0 4 -8 2 -13
-4 -13 -6 0 -9 -4 -6 -9 3 -5 -2 -15 -11 -22 -15 -12 -16 -12 -8 1 15 24 15
42 0 37 -7 -3 -18 0 -25 6 -10 9 -11 9 -6 0 5 -8 1 -13 -9 -13 -10 0 -14 5 -9
13 5 9 4 9 -6 0 -11 -10 -17 -10 -29 0 -12 9 -13 9 -7 0 4 -8 2 -13 -4 -13 -6
0 -9 -4 -6 -9 3 -5 -2 -15 -11 -22 -15 -12 -16 -12 -8 1 15 24 15 42 0 37 -7
-3 -18 0 -25 6 -10 9 -11 9 -6 0 5 -8 1 -13 -9 -13 -10 0 -14 5 -9 13 5 9 4 9
-6 0 -11 -10 -17 -10 -29 0 -12 9 -13 9 -7 0 4 -8 2 -13 -4 -13 -6 0 -9 -4 -6
-9 3 -5 -2 -15 -11 -22 -15 -12 -16 -12 -8 1 15 24 15 42 0 36 -7 -2 -16 -2
-19 2 -11 10 -36 11 -30 0 3 -5 0 -9 -7 -7 -26 3 -40 -1 -34 -10 3 -5 1 -12
-4 -15 -10 -7 -9 13 1 30 4 6 1 11 -7 11 -8 0 -12 -4 -9 -9 3 -4 0 -8 -5 -8
-6 0 -12 6 -13 13 -1 6 -4 -13 -8 -43 -4 -34 -7 21 -8 146 -2 172 1 212 18
280 62 242 223 430 450 525 143 60 60 58 1765 56 1465 -2 1564 -4 1620 -20z
m-3220 -934 c30 -156 120 -328 254 -488 197 -234 553 -479 825 -570 332 -111
595 -302 703 -511 51 -99 65 -147 72 -253 l6 -84 289 -169 c159 -92 282 -168
273 -168 -8 0 -141 11 -293 25 -153 14 -279 23 -282 21 -2 -3 -10 -67 -18
-143 -46 -449 -156 -829 -313 -1080 l-26 -43 -450 1 -450 1 90 20 c104 23 104
22 174 158 129 250 178 536 168 988 -7 306 -31 517 -85 739 -16 69 -19 73 -82
123 -115 91 -286 249 -372 343 -312 341 -476 656 -513 985 -7 60 2 188 12 178
3 -3 11 -36 18 -73z m-499 -40 c-2 -3 -8 -5 -13 -5 -4 0 -14 -5 -22 -11 -12
-10 -13 -9 -6 3 6 8 10 18 11 23 1 4 2 10 3 13 0 4 8 1 16 -6 9 -7 13 -15 11
-17z m-52 8 c3 -5 -2 -15 -12 -22 -15 -12 -16 -12 -5 2 7 9 10 19 6 22 -3 4
-4 7 0 7 3 0 8 -4 11 -9z m132 -4 c4 -4 13 -2 20 4 9 7 14 6 20 -3 4 -7 4 -10
-1 -6 -4 4 -14 3 -21 -3 -8 -7 -14 -7 -19 1 -5 8 -14 6 -28 -7 -15 -12 -18
-13 -9 -2 6 9 9 18 6 22 -3 3 1 4 10 3 8 -1 19 -5 22 -9z m120 0 c4 -4 13 -2
20 4 9 7 14 6 20 -3 4 -7 4 -10 -1 -6 -4 4 -14 3 -21 -3 -8 -7 -14 -7 -19 1
-5 8 -14 6 -28 -7 -15 -12 -18 -13 -9 -2 6 9 9 18 6 22 -3 3 1 4 10 3 8 -1 19
-5 22 -9z m120 1 c3 -4 13 -4 22 -1 15 4 15 3 2 -6 -9 -6 -18 -7 -24 -1 -6 6
-17 3 -30 -8 -16 -13 -18 -13 -8 -1 6 9 9 18 6 22 -3 3 1 4 10 3 8 -1 18 -5
22 -8z m59 3 c3 -5 2 -12 -3 -15 -5 -3 -9 1 -9 9 0 17 3 19 12 6z m2295 -11
c6 -11 8 -20 6 -20 -3 0 -10 9 -16 20 -6 11 -8 20 -6 20 3 0 10 -9 16 -20z
m1161 -23 c-10 -9 -11 -8 -5 6 3 10 9 15 12 12 3 -3 0 -11 -7 -18z m-3261 -92
c0 -5 -5 -3 -10 5 -5 8 -10 20 -10 25 0 6 5 3 10 -5 5 -8 10 -19 10 -25z
m1155 -280 c110 -33 207 -132 239 -244 52 -178 -113 -321 -308 -267 -194 54
-313 246 -245 396 27 60 45 79 104 106 59 28 137 31 210 9z"/>
<path d="M3440 4405 c-164 -23 -317 -70 -391 -122 -33 -24 -79 -91 -79 -118 0
-4 18 12 39 37 105 119 396 185 776 175 358 -9 602 -78 674 -190 29 -44 34
-43 21 3 -28 99 -205 181 -467 215 -139 18 -439 18 -573 0z"/>
<path d="M1219 4397 c-98 -28 -183 -98 -220 -182 -23 -52 -39 -125 -28 -125 5
0 9 8 9 18 0 34 60 140 98 173 125 110 311 111 432 2 54 -48 84 -98 107 -173
l13 -45 -5 49 c-20 192 -224 334 -406 283z"/>
<path d="M3688 4313 c7 -3 16 -2 19 1 4 3 -2 6 -13 5 -11 0 -14 -3 -6 -6z"/>
<path d="M3758 4313 c7 -3 16 -2 19 1 4 3 -2 6 -13 5 -11 0 -14 -3 -6 -6z"/>
<path d="M3533 4303 c9 -2 25 -2 35 0 9 3 1 5 -18 5 -19 0 -27 -2 -17 -5z"/>
<path d="M3883 4303 c9 -2 25 -2 35 0 9 3 1 5 -18 5 -19 0 -27 -2 -17 -5z"/>
<path d="M3458 4293 c7 -3 16 -2 19 1 4 3 -2 6 -13 5 -11 0 -14 -3 -6 -6z"/>
<path d="M3988 4293 c7 -3 16 -2 19 1 4 3 -2 6 -13 5 -11 0 -14 -3 -6 -6z"/>
<path d="M3398 4283 c7 -3 16 -2 19 1 4 3 -2 6 -13 5 -11 0 -14 -3 -6 -6z"/>
<path d="M4048 4283 c7 -3 16 -2 19 1 4 3 -2 6 -13 5 -11 0 -14 -3 -6 -6z"/>
<path d="M3348 4273 c7 -3 16 -2 19 1 4 3 -2 6 -13 5 -11 0 -14 -3 -6 -6z"/>
<path d="M4098 4273 c7 -3 16 -2 19 1 4 3 -2 6 -13 5 -11 0 -14 -3 -6 -6z"/>
<path d="M3144 4188 l-19 -23 23 19 c21 18 27 26 19 26 -2 0 -12 -10 -23 -22z"/>
<path d="M3120 4134 c0 -54 105 -110 270 -146 92 -20 133 -22 340 -22 201 0
249 3 330 21 178 39 280 94 280 150 l0 26 -21 -27 c-29 -37 -86 -64 -193 -91
-329 -83 -852 -40 -973 81 -32 31 -33 32 -33 8z"/>
<path d="M2986 4087 c3 -10 9 -15 12 -12 3 3 0 11 -7 18 -10 9 -11 8 -5 -6z"/>
<path d="M4456 4084 c-4 -10 -1 -14 6 -12 15 5 23 28 10 28 -5 0 -13 -7 -16
-16z"/>
<path d="M961 4064 c0 -11 3 -14 6 -6 3 7 2 16 -1 19 -3 4 -6 -2 -5 -13z"/>
<path d="M1631 4034 c0 -11 3 -14 6 -6 3 7 2 16 -1 19 -3 4 -6 -2 -5 -13z"/>
<path d="M4328 3995 c-31 -18 -60 -30 -65 -27 -4 4 -5 3 0 -2 9 -11 -31 -56
-50 -56 -8 0 -16 7 -19 15 -4 8 -18 15 -32 15 -26 0 -26 0 12 -39 l39 -40 91
81 c50 45 93 83 95 85 18 14 -24 -5 -71 -32z"/>
<path d="M3133 3936 c28 -47 55 -82 59 -80 4 3 42 -22 84 -56 42 -33 81 -60
86 -60 8 0 145 123 160 145 14 19 8 22 -39 22 -36 0 -41 -1 -20 -6 l28 -6 -35
-34 c-20 -19 -39 -32 -43 -28 -3 4 -17 -3 -29 -14 -20 -19 -26 -20 -41 -9 -17
13 -17 13 -1 -5 17 -18 18 -18 45 6 l28 24 -24 -27 c-14 -16 -27 -28 -30 -28
-3 0 -19 12 -36 26 -16 14 -23 22 -15 18 8 -4 11 -3 7 1 -4 5 -14 10 -22 11
-8 1 -32 16 -54 33 -21 17 -43 31 -48 31 -6 0 -24 22 -41 49 -16 27 -39 54
-50 60 -15 8 -6 -12 31 -73z"/>
<path d="M4115 3930 c-3 -5 -1 -10 4 -10 6 0 11 5 11 10 0 6 -2 10 -4 10 -3 0
-8 -4 -11 -10z"/>
<path d="M3328 3923 c7 -3 16 -2 19 1 4 3 -2 6 -13 5 -11 0 -14 -3 -6 -6z"/>
<path d="M3378 3913 c6 -2 18 -2 25 0 6 3 1 5 -13 5 -14 0 -19 -2 -12 -5z"/>
<path d="M4058 3913 c7 -3 16 -2 19 1 4 3 -2 6 -13 5 -11 0 -14 -3 -6 -6z"/>
<path d="M4375 3890 c-9 -16 -13 -30 -11 -30 3 0 12 14 21 30 9 17 13 30 11
30 -3 0 -12 -13 -21 -30z"/>
<path d="M3090 3890 c6 -11 13 -20 16 -20 2 0 0 9 -6 20 -6 11 -13 20 -16 20
-2 0 0 -9 6 -20z"/>
<path d="M3885 3901 c-11 -5 -24 -6 -29 -3 -5 3 -6 1 -3 -5 3 -5 -9 -24 -27
-42 l-34 -33 -48 31 -49 30 50 4 c50 4 50 4 -10 5 -33 1 -80 4 -105 8 -44 5
-43 4 59 -56 l104 -62 66 66 c64 64 68 74 26 57z"/>
<path d="M3935 3900 c4 -6 11 -8 16 -5 14 9 11 15 -7 15 -8 0 -12 -5 -9 -10z"/>
<path d="M3983 3903 c9 -2 23 -2 30 0 6 3 -1 5 -18 5 -16 0 -22 -2 -12 -5z"/>
<path d="M4122 3874 l28 -30 -62 -59 c-34 -33 -55 -51 -45 -39 9 11 14 24 10
29 -5 4 -3 5 3 2 6 -3 26 10 45 31 30 33 31 34 3 9 -28 -25 -36 -27 -119 -27
l-89 0 35 37 c22 24 12 18 -28 -17 -34 -29 -60 -57 -57 -61 5 -8 142 -89 151
-89 8 0 178 162 178 170 0 3 -18 21 -40 40 -37 32 -38 32 -13 4z m-224 -93
c-2 -5 6 -17 17 -26 16 -13 14 -13 -12 1 -23 13 -29 21 -20 26 16 10 18 10 15
-1z m82 -67 c0 -2 -9 0 -20 6 -11 6 -20 13 -20 16 0 2 9 0 20 -6 11 -6 20 -13
20 -16z m40 12 c0 -2 -8 -10 -17 -17 -16 -13 -17 -12 -4 4 13 16 21 21 21 13z"/>
<path d="M4276 3851 c-19 -19 -24 -31 -16 -36 13 -8 13 -9 34 33 20 39 17 40
-18 3z"/>
<path d="M3530 3817 c-19 -17 -56 -51 -82 -73 l-48 -41 85 -67 c47 -36 88 -66
93 -66 9 0 172 163 172 172 0 3 -17 14 -37 25 -21 10 -60 31 -88 47 -27 15
-42 21 -33 13 10 -7 15 -17 11 -21 -4 -4 1 -4 11 0 14 5 17 4 12 -4 -4 -7 -30
-12 -58 -12 l-52 0 29 30 c38 39 29 38 -15 -3z m168 -59 c9 -11 -3 -28 -61
-84 l-72 -69 69 72 69 72 -36 21 c-21 12 -37 24 -37 26 0 8 56 -24 68 -38z
m-183 22 c-3 -5 -20 -19 -38 -30 -32 -22 -32 -22 3 9 37 32 45 37 35 21z m-20
-100 c10 -11 16 -20 13 -20 -3 0 -13 9 -23 20 -10 11 -16 20 -13 20 3 0 13 -9
23 -20z m46 -37 c13 -16 12 -17 -3 -4 -10 7 -18 15 -18 17 0 8 8 3 21 -13z"/>
<path d="M914 3803 c3 -6 -1 -13 -11 -15 -11 -2 -14 -6 -8 -10 6 -4 17 -3 25
2 13 8 13 11 1 22 -9 8 -11 8 -7 1z"/>
<path d="M4184 3757 c-25 -27 -26 -29 -4 -12 l25 20 -19 -22 c-10 -13 -22 -21
-26 -18 -3 2 -23 -10 -44 -26 -32 -27 -35 -33 -24 -48 11 -14 11 -14 -3 -4
-12 10 -19 10 -34 -1 -16 -12 -13 -16 42 -49 34 -21 65 -37 69 -37 5 0 24 40
41 89 18 49 35 95 38 102 3 8 -3 19 -14 26 -16 10 -23 7 -47 -20z m37 -14
c-11 -16 -11 -15 -5 6 4 17 3 21 -6 16 -9 -6 -11 -4 -5 4 5 9 11 9 17 3 7 -7
6 -16 -1 -29z"/>
<path d="M3257 3715 c25 -51 28 -54 45 -38 23 21 23 30 -3 44 -15 8 -19 8 -15
0 4 -6 5 -11 2 -11 -3 0 -12 14 -21 30 -28 54 -35 31 -8 -25z"/>
<path d="M3708 3624 c-49 -47 -88 -87 -88 -89 0 -2 29 -27 65 -55 l65 -52 58
50 c31 28 79 73 106 100 46 48 47 50 26 57 -13 4 -48 22 -79 41 -31 19 -58 34
-61 34 -3 0 -44 -39 -92 -86z m212 2 c0 -2 -8 -10 -17 -17 -16 -13 -17 -12 -4
4 13 16 21 21 21 13z"/>
<path d="M3341 3646 c-12 -12 -18 -26 -14 -30 4 -4 0 -4 -9 -1 -31 12 33 -145
71 -174 l32 -24 60 59 c51 51 58 60 43 69 -9 6 -49 36 -89 67 l-73 57 -21 -23z"/>
<path d="M3897 3493 l-105 -97 81 -63 80 -63 91 87 c88 84 128 143 102 152 -6
2 -39 22 -74 43 -34 21 -64 38 -66 38 -3 0 -52 -44 -109 -97z"/>
<path d="M3516 3433 l-60 -56 60 -53 c32 -29 61 -53 64 -54 3 0 36 29 75 64
l69 63 -24 13 c-14 7 -43 28 -66 47 -23 18 -45 33 -50 33 -5 -1 -36 -26 -68
-57z"/>
<path d="M3687 3296 l-68 -62 71 -62 c39 -34 75 -62 78 -62 12 0 143 122 140
130 -3 6 -119 97 -144 112 -5 3 -40 -22 -77 -56z"/>
<path d="M4053 3299 l-63 -58 53 -40 52 -40 3 32 c1 18 7 61 13 96 5 35 9 65
7 66 -2 2 -31 -23 -65 -56z"/>
<path d="M3410 3330 c-9 -6 -9 -24 -1 -81 6 -41 12 -86 14 -101 2 -27 3 -27
65 30 l62 57 -63 51 c-40 32 -69 49 -77 44z"/>
<path d="M227 3793 c-3 -10 -7 -657 -9 -1438 l-3 -1420 22 -85 c42 -163 114
-289 230 -401 115 -112 238 -178 400 -216 74 -17 163 -18 1693 -18 1537 0
1619 1 1695 19 321 74 557 310 631 631 21 91 21 64 16 1907 -2 808 -5 1027
-15 1025 -7 -1 -14 -27 -18 -67 -3 -36 -6 -658 -7 -1383 -1 -769 -6 -1346 -12
-1386 -46 -323 -263 -574 -582 -673 l-73 -23 -1600 -3 c-1754 -3 -1674 -5
-1829 57 -235 94 -410 294 -482 551 -20 71 -20 90 -27 2080 -2 443 -6 816 -10
829 -9 32 -14 36 -20 14z"/>
</g>
</svg>
